<?xml version="1.0" standalone="no"?>
<!DOCTYPE svg PUBLIC "-//W3C//DTD SVG 20010904//EN"
 "http://www.w3.org/TR/2001/REC-SVG-20010904/DTD/svg10.dtd">
<svg version="1.0" xmlns="http://www.w3.org/2000/svg"
 width="500.000000pt" height="500.000000pt" viewBox="0 0 500.000000 500.000000"
 preserveAspectRatio="xMidYMid meet">
<metadata>
Created by potrace 1.11, written by Peter Selinger 2001-2013
</metadata>
<g transform="translate(0.000000,500.000000) scale(0.100000,-0.100000)"
fill="#000000" stroke="none">
<path d="M0 2500 l0 -2500 2500 0 2500 0 0 2500 0 2500 -2500 0 -2500 0 0
-2500z m3249 1036 c403 -403 732 -739 730 -745 -3 -9 -1400 -1413 -1456 -1463
-19 -17 -40 3 -754 717 -404 404 -734 739 -734 745 0 15 1454 1480 1468 1480
7 0 342 -330 746 -734z m-1364 -2640 c17 -12 16 -14 -18 -12 -47 1 -49 -15 -3
-37 21 -10 36 -24 36 -35 0 -40 -48 -55 -86 -28 -17 13 -15 14 24 9 35 -5 42
-3 42 11 0 10 -14 23 -34 31 -41 17 -49 34 -28 58 18 21 42 22 67 3z m268 7
c-21 -4 -23 -10 -23 -69 0 -82 -18 -84 -22 -2 -3 57 -5 63 -28 69 -16 5 -4 7
35 7 33 -1 50 -3 38 -5z m281 -9 c20 -19 20 -25 1 -50 -21 -28 -19 -54 5 -54
11 0 20 -5 20 -11 0 -21 -45 -3 -58 24 -17 36 -32 34 -32 -3 0 -16 -4 -30 -10
-30 -6 0 -10 30 -10 70 l0 70 34 0 c19 0 42 -7 50 -16z m216 -54 c0 -40 -4
-70 -10 -70 -6 0 -10 30 -10 70 0 40 4 70 10 70 6 0 10 -30 10 -70z m210 18
c17 -55 26 -54 45 2 9 27 21 50 26 50 11 0 9 -9 -20 -85 -10 -27 -23 -51 -28
-52 -10 -4 -53 97 -53 125 0 24 16 3 30 -40z m320 6 c11 -25 23 -58 26 -72 5
-25 4 -25 -9 -9 -18 22 -87 24 -87 2 0 -8 -5 -15 -11 -15 -13 0 -7 30 21 94
10 25 24 46 30 46 6 0 20 -21 30 -46z"/>
<path d="M1862 3427 l-632 -632 98 -98 97 -97 195 195 195 195 262 -262 263
-263 320 320 320 320 274 -280 274 -280 124 123 124 123 -631 634 c-347 349
-635 635 -641 635 -5 0 -294 -285 -642 -633z m525 48 c50 -21 72 -42 94 -90
24 -51 23 -99 0 -152 -60 -131 -262 -131 -322 0 -68 151 77 305 228 242z"/>
<path d="M2260 3424 c-37 -23 -61 -61 -67 -102 -6 -47 27 -100 79 -125 77 -38
169 23 170 112 1 94 -106 162 -182 115z"/>
<path d="M2824 2870 c-82 -83 -151 -153 -153 -156 -3 -2 11 -20 29 -39 l34
-35 58 57 58 57 58 -56 57 -57 58 56 58 56 59 -58 58 -57 41 32 c23 19 41 38
41 44 0 11 -290 306 -301 306 -3 0 -73 -68 -155 -150z"/>
<path d="M1718 2813 l-97 -98 32 -38 c18 -20 37 -37 42 -37 6 0 33 26 62 57
l52 58 60 -60 61 -60 42 43 43 42 -95 95 c-52 52 -97 95 -100 95 -3 0 -49 -44
-102 -97z"/>
<path d="M1988 2616 l-57 -61 -61 60 -60 59 -53 -52 c-29 -29 -57 -52 -62 -52
-5 0 -33 23 -62 52 l-53 52 -55 -54 c-30 -30 -54 -58 -53 -62 6 -15 1024
-1038 1033 -1038 9 0 201 191 775 773 l214 217 -84 85 -84 84 -64 -61 -63 -61
-60 59 -59 58 -53 -52 c-29 -29 -57 -52 -62 -52 -5 0 -33 23 -62 52 l-53 52
-53 -52 c-29 -29 -57 -52 -63 -52 -5 0 -32 23 -59 50 l-49 50 -136 -135 c-74
-74 -140 -135 -145 -135 -6 0 -73 63 -150 140 -77 77 -142 139 -145 139 -3 -1
-31 -29 -62 -63z"/>
<path d="M2370 870 c0 -25 4 -30 25 -30 20 0 25 5 25 24 0 22 -16 36 -41 36
-5 0 -9 -13 -9 -30z"/>
<path d="M3136 858 c-10 -38 -7 -48 14 -48 11 0 20 6 20 13 0 23 -12 57 -20
57 -4 0 -10 -10 -14 -22z"/>
</g>
</svg>
